<?xml version="1.0" encoding="utf-8"?>
<!-- Generator: Adobe Illustrator 16.0.0, SVG Export Plug-In . SVG Version: 6.00 Build 0)  -->
<!DOCTYPE svg PUBLIC "-//W3C//DTD SVG 1.1//EN" "http://www.w3.org/Graphics/SVG/1.1/DTD/svg11.dtd">
<svg version="1.1" id="Layer_1" xmlns="http://www.w3.org/2000/svg" xmlns:xlink="http://www.w3.org/1999/xlink" x="0px" y="0px"
	 width="24px" height="24px" viewBox="0 0 24 24" enable-background="new 0 0 24 24" xml:space="preserve">
<symbol  id="ic_x5F_chevron_x5F_left_x5F_darkreg" viewBox="0 -24 24 24">
	<g>
		
			<linearGradient id="SVGID_1_" gradientUnits="userSpaceOnUse" x1="3502.25" y1="-18" x2="3502.25" y2="-6" gradientTransform="matrix(-1 0 0 1 3514 0)">
			<stop  offset="0" style="stop-color:#000000;stop-opacity:0.7"/>
			<stop  offset="1" style="stop-color:#000000;stop-opacity:0.6"/>
		</linearGradient>
		<polygon fill="url(#SVGID_1_)" points="8,-12 14,-18 15.5,-16.5 11,-12 15.5,-7.5 14,-6 		"/>
		<g opacity="0.05">
			<path d="M14-6.707L14.793-7.5l-4.146-4.146L10.293-12l0.354-0.354l4.146-4.146L14-17.293L8.707-12L14-6.707 M14-6l-6-6l6-6
				l1.5,1.5L11-12l4.5,4.5L14-6L14-6z"/>
		</g>
	</g>
	<polygon fill="none" points="0,-24 24,-24 24,0 0,0 	"/>
	<g>
		<g opacity="0.2">
			<path d="M8-12l0.25-0.25L14-6.5l1.25-1.25L15.5-7.5L14-6L8-12z M11-12v-0.5l4.25-4.25l0.25,0.25L11-12z"/>
		</g>
	</g>
	<path fill="#FFFFFF" fill-opacity="0.3" d="M11.25-12.25L15.5-8v0.5L11-12L11.25-12.25z M8-12v-0.5l6-6l1.5,1.5v0.5L14-18L8-12z"/>
</symbol>
<use xlink:href="#ic_x5F_chevron_x5F_left_x5F_darkreg"  width="24" height="24" id="XMLID_69_" y="-24" transform="matrix(1 0 0 -1 0 0)" overflow="visible"/>
</svg>
